<svg xmlns="http://www.w3.org/2000/svg" viewBox="0 0 250 68" width="250" height="68">
  <!-- Deep Cyan / Teal Blue Container matching the poster -->
  <rect x="0" y="0" width="250" height="68" rx="3" fill="#004767"/>
  
  <!-- Left: TB Monogram -->
  <g transform="translate(18, 14)">
    <!-- T letterform -->
    <path d="M 0 0 L 21 0 L 21 7.5 L 14 7.5 L 14 38 L 6.5 38 L 6.5 7.5 L 0 7.5 Z" fill="#FFFFFF"/>
    <!-- B letterform with shared or connected look -->
    <path d="M 23 0 L 38 0 C 45 0 49 3.5 49 9.5 C 49 13.5 46.5 16.5 42 17.5 C 47.5 18.5 50 22 50 28 C 50 34.5 45.5 38 38 38 L 23 38 Z M 30.5 7 L 30.5 15 L 37 15 C 40 15 42 13.8 42 11 C 42 8.2 40 7 37 7 Z M 30.5 22.5 L 30.5 31 L 37.5 31 C 41 31 42.5 29.5 42.5 26.8 C 42.5 24 41 22.5 37.5 22.5 Z" fill="#FFFFFF"/>
  </g>

  <!-- Right: Typography matching poster -->
  <text x="78" y="34" font-family="'Pretendard', 'Montserrat', 'Helvetica Neue', Arial, sans-serif" font-size="20" font-weight="900" letter-spacing="1.2" fill="#FFFFFF">
    T-BROTHERS
  </text>
  <text x="79" y="50" font-family="'Pretendard', 'Montserrat', 'Helvetica Neue', Arial, sans-serif" font-size="8.5" font-weight="700" letter-spacing="1.8" fill="#B3D9EA">
    FOOD &amp; TRADING LTD
  </text>
</svg>
